<?xml version="1.0" encoding="utf-8"?>
<!-- Generator: Adobe Illustrator 25.0.0, SVG Export Plug-In . SVG Version: 6.00 Build 0)  -->
<svg version="1.1" id="Layer_1" xmlns="http://www.w3.org/2000/svg" xmlns:xlink="http://www.w3.org/1999/xlink" x="0px" y="0px"
	 viewBox="0 0 91 18" style="enable-background:new 0 0 91 18;" xml:space="preserve">
<style type="text/css">
	.st0{fill:none;stroke:url(#SVGID_1_);stroke-miterlimit:10;}
	.st1{fill:none;stroke:url(#SVGID_2_);stroke-miterlimit:10;}
	.st2{fill:none;stroke:url(#SVGID_3_);stroke-miterlimit:10;}
	.st3{fill:none;stroke:url(#SVGID_4_);stroke-miterlimit:10;}
	.st4{fill:none;stroke:url(#SVGID_5_);stroke-miterlimit:10;}
</style>
<g>
	<g>
		<linearGradient id="SVGID_1_" gradientUnits="userSpaceOnUse" x1="5.4429" y1="9.0012" x2="85.2412" y2="9.0012">
			<stop  offset="0" style="stop-color:#00A1F1"/>
			<stop  offset="1" style="stop-color:#E023FF"/>
		</linearGradient>
		<path class="st0" d="M15.8,13.4H10l-1.1,3H5.4L11,1.6h3.8l5.5,14.9h-3.6L15.8,13.4z M11.1,10.4h3.6l-1.8-5.1L11.1,10.4z"/>
		<linearGradient id="SVGID_2_" gradientUnits="userSpaceOnUse" x1="5.4429" y1="9.0012" x2="85.2412" y2="9.0012">
			<stop  offset="0" style="stop-color:#00A1F1"/>
			<stop  offset="1" style="stop-color:#E023FF"/>
		</linearGradient>
		<path class="st1" d="M31.7,16.4l-6.1-9.8v9.8h-3.3V1.6h4l5.6,9v-9h3.3v14.9H31.7z"/>
		<linearGradient id="SVGID_3_" gradientUnits="userSpaceOnUse" x1="5.4429" y1="9.0012" x2="85.2412" y2="9.0012">
			<stop  offset="0" style="stop-color:#00A1F1"/>
			<stop  offset="1" style="stop-color:#E023FF"/>
		</linearGradient>
		<path class="st2" d="M52,16.4V6.6l-3.9,9.9h-2.7l-3.9-9.7v9.7h-3.1V1.6h4.3l4.1,10.1l3.9-10.1h4.6v14.9H52z"/>
		<linearGradient id="SVGID_4_" gradientUnits="userSpaceOnUse" x1="5.4429" y1="9.0015" x2="85.2412" y2="9.0015">
			<stop  offset="0" style="stop-color:#00A1F1"/>
			<stop  offset="1" style="stop-color:#E023FF"/>
		</linearGradient>
		<path class="st3" d="M65.4,1.2c4.2,0,7.7,3,7.7,7.8c0,4.7-3.5,7.7-7.7,7.7c-4.2,0-7.7-3-7.7-7.7C57.6,4.3,61.2,1.2,65.4,1.2z
			 M65.4,13.5c2.1,0,4.3-1.4,4.3-4.5c0-3.1-2.2-4.5-4.3-4.5c-2.1,0-4.3,1.4-4.3,4.5C61.1,12.1,63.3,13.5,65.4,13.5z"/>
		<linearGradient id="SVGID_5_" gradientUnits="userSpaceOnUse" x1="5.4429" y1="9.0012" x2="85.2412" y2="9.0012">
			<stop  offset="0" style="stop-color:#00A1F1"/>
			<stop  offset="1" style="stop-color:#E023FF"/>
		</linearGradient>
		<path class="st4" d="M75.5,16.4V1.6h3.3v11.7h6.4v3.2H75.5z"/>
	</g>
</g>
</svg>
